<svg width="1022" height="133" viewBox="0 0 1022 133" fill="none" xmlns="http://www.w3.org/2000/svg">
<g filter="url(#filter0_i)">
<path fill-rule="evenodd" clip-rule="evenodd" d="M398.704 118.335C396.711 118.335 395.098 116.714 395.098 114.71C395.098 112.706 396.711 111.089 398.704 111.089C400.697 111.089 402.31 112.706 402.31 114.71C402.31 116.714 400.697 118.335 398.704 118.335ZM387.654 124.712C408.654 124.712 407.343 115.558 407.343 115.558L407.318 106.075H387.281V103.228H415.275C415.275 103.228 428.712 104.762 428.712 83.4649C428.712 62.1676 416.987 62.9182 416.987 62.9182H409.986V72.8049C409.986 72.8049 410.362 84.5897 398.448 84.5897H378.572C378.572 84.5897 367.406 84.4125 367.406 95.4416V113.674C367.406 113.674 365.71 124.712 387.654 124.712ZM376.012 48.377C378.005 48.377 379.614 49.998 379.614 52.0017C379.614 54.0055 378.005 55.6224 376.012 55.6224C374.019 55.6224 372.406 54.0055 372.406 52.0017C372.406 49.998 374.019 48.377 376.012 48.377ZM387.058 42C366.062 42 367.373 51.1536 367.373 51.1536L367.398 60.6364H387.434V63.4836H359.436C359.436 63.4836 346 61.9495 346 83.2468C346 104.544 357.729 103.794 357.729 103.794H364.726V93.9069C364.726 93.9069 364.35 82.1221 376.268 82.1221H396.14C396.14 82.1221 407.306 82.2993 407.306 71.2702V53.0377C407.306 53.0377 409.002 42 387.058 42Z" fill="#A86FF4" fill-opacity="0.9"/>
<path fill-rule="evenodd" clip-rule="evenodd" d="M551.034 116.892C543.537 116.899 538.687 113.33 536.32 108.658L542.889 104.844C544.624 107.669 546.872 109.743 550.855 109.739C554.198 109.736 556.331 108.061 556.329 105.754C556.326 102.283 551.693 100.931 548.422 99.5333C542.594 97.0599 538.725 93.9487 538.718 87.3711C538.713 81.3176 543.322 76.6994 550.536 76.6925C555.666 76.6877 559.362 78.4711 562.017 83.1387L555.736 87.1829C554.35 84.7053 552.85 83.7264 550.543 83.7286C548.175 83.7308 546.677 85.2324 546.679 87.1915C546.682 89.6146 548.182 90.5932 551.646 92.0894C558.906 95.193 564.398 97.6315 564.406 105.631C564.413 112.901 558.707 116.885 551.034 116.892ZM532.428 104.738C532.436 113.103 527.289 117.529 520.135 117.536C513.674 117.542 509.8 115.075 507.893 110.78L507.829 110.78L507.799 110.78L507.781 110.78L514.346 106.182C515.616 108.428 516.76 110.021 519.527 110.018C522.182 110.016 523.839 108.67 523.835 104.635L523.808 76.3948L532.401 76.3867L532.428 104.738ZM485.186 123.691L571.112 123.609L571.031 37.6833L485.105 37.7648L485.186 123.691Z" fill="#A86FF4" fill-opacity="0.9"/>
<path d="M1020.84 48.9569L996.768 23.6104C996.396 23.2195 995.89 23 995.361 23H942.977C941.884 23 941 23.9217 941 25.0575V127.93C941 129.066 941.884 129.988 942.977 129.988H1019.43C1020.52 129.988 1021.41 129.066 1021.41 127.93V50.4039C1021.41 49.8635 1021.2 49.3437 1020.84 48.9569ZM997.681 30.4274L1014.72 48.3753H997.681V30.4274ZM944.955 125.873V27.1149H993.727V50.4327C993.727 51.5685 994.611 52.4902 995.704 52.4902H1017.45V125.873H944.955Z" fill="#A86FF4" fill-opacity="0.9"/>
<path d="M981.949 103.287C981.07 102.997 978.2 101.91 978.2 100.155C978.2 97.7542 979.959 97.7542 980.709 97.7542C982.686 97.7542 983.835 99.6937 983.897 99.7993C984.444 100.776 985.645 101.113 986.589 100.547C987.537 99.9831 987.864 98.7253 987.32 97.7391C987.228 97.5718 985.012 93.6393 980.709 93.6393C975.938 93.6393 974.246 97.1493 974.246 100.155C974.246 103.316 976.555 105.821 980.751 107.21C984.5 108.452 984.5 109.287 984.5 110.343C984.5 110.964 984.146 111.654 983.577 112.144C983.177 112.487 982.327 113.03 981.079 112.779C978.857 112.339 977.852 110.948 977.596 110.532C977.007 109.574 975.784 109.294 974.865 109.907C973.945 110.519 973.676 111.79 974.263 112.748C974.866 113.73 976.664 116.092 980.336 116.821C980.786 116.91 981.238 116.956 981.687 116.956C983.295 116.956 984.85 116.387 986.095 115.315C987.571 114.045 988.451 112.188 988.451 110.343C988.454 106.275 985.853 104.581 981.949 103.287Z" fill="#A86FF4" fill-opacity="0.9"/>
<path d="M1000.4 103.287C999.524 102.997 996.654 101.91 996.654 100.155C996.654 97.7542 998.413 97.7542 999.163 97.7542C1001.14 97.7542 1002.29 99.6937 1002.35 99.7993C1002.9 100.776 1004.1 101.113 1005.04 100.547C1005.99 99.9831 1006.32 98.7253 1005.77 97.7391C1005.68 97.5718 1003.47 93.6393 999.163 93.6393C994.392 93.6393 992.7 97.1493 992.7 100.155C992.7 103.316 995.009 105.821 999.205 107.21C1002.95 108.452 1002.95 109.287 1002.95 110.343C1002.95 110.964 1002.6 111.654 1002.03 112.144C1001.63 112.487 1000.78 113.03 999.533 112.779C997.311 112.339 996.306 110.948 996.051 110.532C995.461 109.574 994.238 109.294 993.319 109.907C992.399 110.519 992.13 111.79 992.717 112.748C993.321 113.73 995.119 116.092 998.79 116.821C999.241 116.91 999.693 116.956 1000.14 116.956C1001.75 116.956 1003.3 116.387 1004.55 115.315C1006.03 114.045 1006.91 112.188 1006.91 110.343C1006.91 106.275 1004.31 104.581 1000.4 103.287Z" fill="#A86FF4" fill-opacity="0.9"/>
<path d="M968.173 108.84C967.178 108.372 966.006 108.837 965.56 109.874C964.279 112.842 962.465 112.842 961.869 112.842C958.851 112.842 957.477 109.264 957.477 105.939C957.477 97.7542 960.783 97.7542 961.869 97.7542C964.151 97.7542 965.006 99.9598 965.101 100.226C965.464 101.286 966.58 101.849 967.61 101.482C968.642 101.111 969.19 99.9406 968.834 98.8666C968.191 96.9257 965.999 93.6393 961.871 93.6393C958.753 93.6393 953.524 95.2372 953.524 105.939C953.524 112.322 957.034 116.957 961.871 116.957C965.075 116.957 967.667 115.041 969.168 111.558C969.615 110.521 969.169 109.303 968.173 108.84Z" fill="#A86FF4" fill-opacity="0.9"/>
<path d="M758.402 45.5982C756.67 43.8662 754.58 43 752.132 43H636.867C634.419 43 632.33 43.8664 630.598 45.5982C628.866 47.3301 628 49.42 628 51.8669V113.933C628 116.381 628.866 118.47 630.598 120.202C632.33 121.934 634.419 122.801 636.867 122.801H752.132C754.58 122.801 756.67 121.934 758.402 120.202C760.133 118.47 761 116.381 761 113.933V51.8669C761 49.42 760.133 47.3301 758.402 45.5982ZM752.132 113.933H636.867V51.8669H752.132V113.933Z" fill="#A86FF4" fill-opacity="0.9"/>
<path d="M646.841 105.066H653.491C654.23 105.066 654.6 104.696 654.6 103.958V97.3078C654.6 96.5704 654.231 96.1995 653.491 96.1995H646.841C646.103 96.1995 645.733 96.5704 645.733 97.3078V103.958C645.733 104.696 646.103 105.066 646.841 105.066Z" fill="#A86FF4" fill-opacity="0.9"/>
<path d="M646.841 87.3342H662.358C663.097 87.3342 663.467 86.963 663.467 86.2249V79.5746C663.467 78.8359 663.097 78.4671 662.358 78.4663H646.841C646.103 78.4663 645.733 78.8359 645.733 79.5746V86.2249C645.733 86.963 646.103 87.3342 646.841 87.3342Z" fill="#A86FF4" fill-opacity="0.9"/>
<path d="M646.841 69.5999H653.491C654.23 69.5999 654.6 69.2299 654.6 68.4911V61.8418C654.6 61.1028 654.231 60.7342 653.491 60.733H646.841C646.103 60.733 645.733 61.1028 645.733 61.8418V68.4911C645.733 69.2299 646.103 69.5999 646.841 69.5999Z" fill="#A86FF4" fill-opacity="0.9"/>
<path d="M724.425 96.1999H664.575C663.836 96.1999 663.467 96.5701 663.467 97.3091V103.958C663.467 104.695 663.836 105.067 664.575 105.067H724.423C725.162 105.067 725.532 104.697 725.532 103.958V97.3091C725.533 96.5703 725.162 96.1999 724.425 96.1999Z" fill="#A86FF4" fill-opacity="0.9"/>
<path d="M672.333 86.2249C672.333 86.963 672.703 87.3342 673.441 87.3342H680.092C680.83 87.3342 681.199 86.963 681.199 86.2249V79.5746C681.199 78.8359 680.831 78.4671 680.092 78.4663H673.441C672.703 78.4663 672.333 78.8359 672.333 79.5746V86.2249Z" fill="#A86FF4" fill-opacity="0.9"/>
<path d="M664.576 69.5999H671.225C671.964 69.5999 672.334 69.2299 672.334 68.4911V61.8418C672.334 61.1028 671.964 60.7342 671.225 60.733H664.576C663.836 60.733 663.467 61.1028 663.467 61.8418V68.4911C663.467 69.2299 663.837 69.5999 664.576 69.5999Z" fill="#A86FF4" fill-opacity="0.9"/>
<path d="M690.066 86.2249C690.066 86.963 690.436 87.3342 691.174 87.3342H697.824C698.563 87.3342 698.933 86.963 698.933 86.2249V79.5746C698.933 78.8359 698.563 78.4671 697.824 78.4663H691.174C690.436 78.4663 690.066 78.8359 690.066 79.5746V86.2249V86.2249Z" fill="#A86FF4" fill-opacity="0.9"/>
<path d="M682.308 69.5999H688.957C689.696 69.5999 690.066 69.2299 690.066 68.4911V61.8418C690.066 61.1028 689.697 60.7342 688.957 60.733H682.308C681.569 60.733 681.199 61.1028 681.199 61.8418V68.4911C681.199 69.2299 681.569 69.5999 682.308 69.5999Z" fill="#A86FF4" fill-opacity="0.9"/>
<path d="M707.799 86.2249C707.799 86.963 708.169 87.3342 708.907 87.3342H715.558C716.296 87.3342 716.665 86.963 716.665 86.2249V79.5746C716.665 78.8359 716.296 78.4671 715.558 78.4663H708.907C708.169 78.4663 707.799 78.8359 707.799 79.5746V86.2249Z" fill="#A86FF4" fill-opacity="0.9"/>
<path d="M742.157 96.1999H735.508C734.769 96.1999 734.399 96.5701 734.399 97.3091V103.958C734.399 104.695 734.769 105.067 735.508 105.067H742.157C742.896 105.067 743.266 104.697 743.266 103.958V97.3091C743.266 96.5703 742.897 96.1999 742.157 96.1999Z" fill="#A86FF4" fill-opacity="0.9"/>
<path d="M700.041 69.5999H706.692C707.431 69.5999 707.8 69.2299 707.8 68.4911V61.8418C707.8 61.1028 707.431 60.7342 706.692 60.733H700.041C699.302 60.733 698.934 61.1028 698.934 61.8418V68.4911C698.934 69.2299 699.302 69.5999 700.041 69.5999Z" fill="#A86FF4" fill-opacity="0.9"/>
<path d="M717.775 69.5999H724.424C725.163 69.5999 725.533 69.2299 725.533 68.4911V61.8418C725.533 61.1028 725.163 60.7342 724.424 60.733H717.775C717.036 60.733 716.665 61.1028 716.665 61.8418V68.4911C716.665 69.2299 717.036 69.5999 717.775 69.5999Z" fill="#A86FF4" fill-opacity="0.9"/>
<path d="M725.532 86.2249C725.532 86.9629 725.901 87.3342 726.64 87.3342H742.157C742.896 87.3342 743.266 86.9629 743.266 86.2249V61.8418C743.266 61.1028 742.897 60.7342 742.157 60.733H735.508C734.769 60.733 734.399 61.1028 734.399 61.8418V78.4663H726.641C725.902 78.4663 725.532 78.8358 725.532 79.5746V86.2249H725.532Z" fill="#A86FF4" fill-opacity="0.9"/>
<path d="M266.246 55.1387C260.331 55.1055 254.863 56.4398 249.84 59.5968L238.92 59.5355L238.945 54.9853C239.017 42.2449 229.063 32.1783 216.322 32.1067L202.672 32.03C194.937 31.9865 189.055 26.0381 189.098 18.3029L189.175 4.65243C189.19 1.92234 187.381 0.0920529 184.65 0.0767108C181.92 0.0613686 180.09 1.8712 180.075 4.60129L179.998 18.2517C179.926 30.9921 189.88 41.0587 202.621 41.1303L216.271 41.207C224.007 41.2505 229.889 47.1989 229.845 54.9342L229.819 59.4843L218.899 59.4229C213.912 56.2097 208.459 54.814 202.544 54.7807C184.799 54.681 170.614 68.7072 170.514 86.4528C170.414 104.198 184.441 118.383 202.186 118.483C208.101 118.516 213.569 117.182 218.592 114.025L249.533 114.199C254.521 117.412 259.973 118.808 265.888 118.841C283.634 118.94 297.819 104.914 297.918 87.1687C298.018 69.4232 283.992 55.2384 266.246 55.1387ZM211.44 91.233L206.89 91.2075L206.864 95.7576C206.849 98.4877 205.019 100.298 202.288 100.282C199.558 100.267 197.749 98.4366 197.764 95.7065L197.789 91.1563L193.239 91.1308C190.509 91.1154 188.699 89.2851 188.715 86.555C188.73 83.825 190.56 82.0151 193.29 82.0305L197.841 82.056L197.866 77.5059C197.882 74.7758 199.712 72.966 202.442 72.9813C205.172 72.9967 206.982 74.827 206.966 77.557L206.941 82.1072L211.491 82.1328C214.221 82.1481 216.031 83.9784 216.016 86.7085C216 89.4386 214.17 91.2484 211.44 91.233ZM262.033 76.0464C262.491 75.5939 262.494 75.1389 262.951 74.6865C264.324 73.3291 266.146 72.8843 267.961 73.8046C268.414 74.2621 268.869 74.2647 269.321 74.7223C269.774 75.1798 270.226 75.6374 270.224 76.0924C270.221 76.5474 270.671 77.46 270.669 77.915C270.666 78.37 270.661 79.2801 270.203 79.7325C269.746 80.185 269.743 80.64 269.286 81.0925C268.828 81.5449 268.37 81.9974 267.915 81.9948C267.458 82.4473 266.548 82.4422 266.093 82.4396C264.728 82.4319 263.82 81.9718 262.915 81.0567C262.463 80.5991 262.01 80.1415 262.013 79.6865C262.016 79.2315 261.566 78.3189 261.568 77.8639C261.571 77.4089 261.576 76.4988 262.033 76.0464ZM256.941 91.4887C255.576 91.4811 254.669 91.021 253.764 90.1058C253.311 89.6482 252.859 89.1907 252.862 88.7356C252.864 88.2806 252.414 87.368 252.417 86.913C252.424 85.548 252.885 84.6405 253.8 83.7356C255.63 81.9258 258.36 81.9411 260.17 83.7714L260.622 84.229C260.62 84.684 261.075 84.6866 261.072 85.1416C261.07 85.5966 261.07 85.5966 261.522 86.0541C261.52 86.5092 261.52 86.5092 261.517 86.9642C261.509 88.3292 261.049 89.2367 260.134 90.1416C259.219 91.0465 258.306 91.4964 256.941 91.4887ZM270.561 97.0256C270.559 97.4807 270.559 97.4806 270.101 97.9331C270.098 98.3881 269.643 98.3856 269.641 98.8406L269.183 99.293C268.726 99.7455 268.268 100.198 267.813 100.195C267.356 100.648 266.446 100.643 265.991 100.64C264.625 100.633 263.718 100.172 262.813 99.2572C261.908 98.3421 261.458 97.4295 261.466 96.0645C261.474 94.6994 261.934 93.7919 262.849 92.887C264.222 91.5297 266.044 91.0849 267.859 92.0051C268.312 92.4627 268.767 92.4653 269.219 92.9228C270.124 93.838 270.574 94.7506 270.566 96.1156C270.564 96.5706 270.564 96.5706 270.561 97.0256ZM279.252 88.884C278.795 89.3364 278.792 89.7914 278.335 90.2439C277.88 90.2413 277.877 90.6963 277.877 90.6963C277.422 90.6938 277.42 91.1488 276.965 91.1462C276.51 91.1437 276.51 91.1437 276.052 91.5961C275.597 91.5936 275.597 91.5936 275.142 91.591C273.777 91.5834 272.869 91.1232 271.965 90.2081C271.512 89.7505 271.06 89.2929 271.062 88.8379C271.065 88.3829 270.615 87.4703 270.617 87.0153C270.62 86.5603 270.625 85.6503 271.083 85.1978C271.54 84.7454 271.543 84.2903 272 83.8379C272.915 82.933 274.738 82.4882 276.103 82.4959C276.558 82.4984 276.558 82.4984 277.011 82.956C277.466 82.9585 277.463 83.4136 277.918 83.4161L278.371 83.8737C278.823 84.3313 279.275 84.7888 279.273 85.2438C279.27 85.6989 279.72 86.6114 279.718 87.0665C279.715 87.5215 279.71 88.4315 279.252 88.884Z" fill="#A86FF4" fill-opacity="0.9"/>
<path d="M113.117 23H106.856C105.869 23 105.068 23.9734 105.068 25.1748C105.068 26.3762 105.869 27.3496 106.856 27.3496H113.117C116.074 27.3496 118.48 30.2766 118.48 33.874V43.8781H3.57587V33.874C3.57587 30.2766 5.98195 27.3496 8.93967 27.3496H99.006C99.9937 27.3496 100.794 26.3762 100.794 25.1748C100.794 23.9734 99.9937 23 99.006 23H8.93967C4.01022 23 0 27.8779 0 33.874V57.8492C0 59.0506 0.800518 60.024 1.78793 60.024C2.77535 60.024 3.57587 59.0506 3.57587 57.8492V48.2277H118.48V104.299C118.48 105.5 119.281 106.473 120.268 106.473C121.256 106.473 122.056 105.5 122.056 104.299V33.874C122.056 27.8779 118.046 23 113.117 23V23Z" fill="#A86FF4" fill-opacity="0.9"/>
<path d="M120.268 111.295C119.281 111.295 118.48 112.268 118.48 113.47V119.126C118.48 122.723 116.074 125.65 113.117 125.65H8.93967C5.98195 125.65 3.57587 122.723 3.57587 119.126V67.1823C3.57587 65.9809 2.77535 65.0075 1.78793 65.0075C0.800518 65.0075 0 65.9809 0 67.1823V119.126C0 125.122 4.01022 130 8.93967 130H113.117C118.046 130 122.056 125.122 122.056 119.126V113.47C122.056 112.269 121.256 111.295 120.268 111.295Z" fill="#A86FF4" fill-opacity="0.9"/>
<path d="M25.8611 70.2531C25.1628 69.404 24.0307 69.404 23.3327 70.2531L12.5884 83.3222C12.253 83.7302 12.0647 84.2831 12.0647 84.8602C12.0647 85.4372 12.253 85.9899 12.5884 86.3982L23.1906 99.2945C23.5396 99.719 23.9973 99.9312 24.4548 99.9312C24.9123 99.9312 25.37 99.719 25.719 99.2945C26.4172 98.4448 26.4172 97.0681 25.719 96.2187L16.381 84.8605L25.8611 73.3291C26.5596 72.4795 26.5596 71.1027 25.8611 70.2531V70.2531Z" fill="#A86FF4" fill-opacity="0.9"/>
<path d="M49.9058 99.2942C50.2548 99.7187 50.7125 99.9309 51.1699 99.9309C51.6274 99.9309 52.0851 99.7187 52.4341 99.2942L63.0366 86.3979C63.3718 85.9899 63.5601 85.4369 63.5601 84.8599C63.5601 84.2829 63.3718 83.7302 63.0366 83.3219L52.2921 70.2528C51.5938 69.4038 50.4617 69.4038 49.7637 70.2528C49.0654 71.1024 49.0654 72.4792 49.7637 73.3286L59.244 84.8599L49.906 96.2181C49.2075 97.0681 49.2075 98.4448 49.9058 99.2942V99.2942Z" fill="#A86FF4" fill-opacity="0.9"/>
<path d="M31.4652 107.305C32.1863 107.305 32.866 106.77 33.137 105.901L45.8419 65.1895C46.1923 64.0665 45.7279 62.8106 44.8049 62.3844C43.8818 61.9578 42.8491 62.523 42.4989 63.6457L29.7941 104.358C29.4436 105.481 29.908 106.737 30.8311 107.163C31.0399 107.259 31.2542 107.305 31.4652 107.305V107.305Z" fill="#A86FF4" fill-opacity="0.9"/>
<path d="M7.86838 35.7215C7.86838 39.3189 10.2745 42.2459 13.2322 42.2459C16.1899 42.2459 18.596 39.3189 18.596 35.7215C18.596 32.1241 16.1899 29.1971 13.2322 29.1971C10.2745 29.1971 7.86838 32.1241 7.86838 35.7215V35.7215ZM15.0201 35.7215C15.0201 36.9208 14.2182 37.8963 13.2322 37.8963C12.2462 37.8963 11.4442 36.9208 11.4442 35.7215C11.4442 34.5221 12.2462 33.5467 13.2322 33.5467C14.2182 33.5467 15.0201 34.5221 15.0201 35.7215Z" fill="#A86FF4" fill-opacity="0.9"/>
<path d="M21.7331 35.7215C21.7331 39.3189 24.1392 42.2459 27.0969 42.2459C30.0546 42.2459 32.4607 39.3189 32.4607 35.7215C32.4607 32.1241 30.0546 29.1971 27.0969 29.1971C24.1392 29.1971 21.7331 32.1241 21.7331 35.7215V35.7215ZM28.8849 35.7215C28.8849 36.9208 28.0829 37.8963 27.0969 37.8963C26.1109 37.8963 25.309 36.9208 25.309 35.7215C25.309 34.5221 26.1109 33.5467 27.0969 33.5467C28.0829 33.5467 28.8849 34.5221 28.8849 35.7215Z" fill="#A86FF4" fill-opacity="0.9"/>
<path d="M35.5977 35.7215C35.5977 39.3189 38.0038 42.2459 40.9616 42.2459C43.9193 42.2459 46.3254 39.3189 46.3254 35.7215C46.3254 32.1241 43.9193 29.1971 40.9616 29.1971C38.0038 29.1971 35.5977 32.1241 35.5977 35.7215V35.7215ZM42.7495 35.7215C42.7495 36.9208 41.9475 37.8963 40.9616 37.8963C39.9756 37.8963 39.1736 36.9208 39.1736 35.7215C39.1736 34.5221 39.9756 33.5467 40.9616 33.5467C41.9475 33.5467 42.7495 34.5221 42.7495 35.7215Z" fill="#A86FF4" fill-opacity="0.9"/>
<path d="M79.9803 72.547H91.1847C94.1422 72.547 96.5485 69.62 96.5485 66.0226C96.5485 62.4252 94.1422 59.4982 91.1847 59.4982H79.9803C77.0228 59.4982 74.6165 62.4252 74.6165 66.0226C74.6165 69.62 77.0228 72.547 79.9803 72.547ZM79.9803 63.8478H91.1847C92.1707 63.8478 92.9726 64.8233 92.9726 66.0226C92.9726 67.222 92.1707 68.1974 91.1847 68.1974H79.9803C78.9943 68.1974 78.1924 67.222 78.1924 66.0226C78.1924 64.8233 78.9943 63.8478 79.9803 63.8478Z" fill="#A86FF4" fill-opacity="0.9"/>
<path d="M79.9803 89.9454H109.541C112.498 89.9454 114.905 87.0184 114.905 83.421C114.905 79.8236 112.498 76.8966 109.541 76.8966H79.9803C77.0228 76.8966 74.6165 79.8236 74.6165 83.421C74.6165 87.0184 77.0228 89.9454 79.9803 89.9454ZM79.9803 81.2462H109.541C110.527 81.2462 111.329 82.2217 111.329 83.421C111.329 84.6203 110.527 85.5958 109.541 85.5958H79.9803C78.9943 85.5958 78.1924 84.6203 78.1924 83.421C78.1924 82.2217 78.9943 81.2462 79.9803 81.2462Z" fill="#A86FF4" fill-opacity="0.9"/>
<path d="M79.9803 107.344H100.76C103.717 107.344 106.123 104.417 106.123 100.819C106.123 97.222 103.717 94.295 100.76 94.295H79.9803C77.0228 94.295 74.6165 97.222 74.6165 100.819C74.6165 104.417 77.0228 107.344 79.9803 107.344ZM79.9803 98.6446H100.76C101.746 98.6446 102.548 99.6201 102.548 100.819C102.548 102.019 101.746 102.994 100.76 102.994H79.9803C78.9943 102.994 78.1924 102.019 78.1924 100.819C78.1924 99.6201 78.9943 98.6446 79.9803 98.6446Z" fill="#A86FF4" fill-opacity="0.9"/>
<path d="M892.064 49.5646L867.088 24.5248C866.702 24.1386 866.178 23.9233 865.632 23.9258L811.532 24.1801C810.403 24.1854 809.494 25.1046 809.499 26.2318L809.979 128.334C809.984 129.461 810.902 130.372 812.031 130.366L890.99 129.995C892.118 129.99 893.027 129.071 893.022 127.944L892.66 50.9981C892.658 50.4617 892.443 49.9467 892.064 49.5646ZM868.063 31.2864L885.748 49.0171L868.146 49.0998L868.063 31.2864ZM814.054 126.273L813.593 28.2546L863.963 28.0179L864.072 51.161C864.077 52.2882 864.995 53.1988 866.124 53.1935L888.586 53.0879L888.928 125.921L814.054 126.273Z" fill="#A86FF4" fill-opacity="0.9"/>
<path d="M881.26 87.69C880.132 87.6953 879.223 88.6145 879.228 89.7417L879.329 111.303C879.335 112.43 880.252 113.341 881.381 113.335C882.51 113.33 883.419 112.411 883.413 111.284L883.312 89.7225C883.307 88.5953 882.389 87.6847 881.26 87.69Z" fill="#A86FF4" fill-opacity="0.9"/>
<path d="M827.006 99.5795C826.01 99.5842 825.039 99.8106 824.141 100.207L824.096 90.8285C824.091 89.7013 823.173 88.7908 822.045 88.7961C820.916 88.8014 820.007 89.7205 820.012 90.8477L820.115 112.63C820.12 113.757 821.038 114.667 822.166 114.662C823.295 114.657 824.204 113.738 824.199 112.61L824.165 105.323C824.268 105.23 824.362 105.126 824.446 105.01C825.066 104.16 826.006 103.67 827.025 103.665C828.821 103.656 830.29 105.176 830.299 107.053C830.299 107.073 830.305 107.092 830.305 107.113C830.305 107.133 830.299 107.152 830.3 107.173L830.325 112.618C830.33 113.745 831.248 114.656 832.377 114.651C833.505 114.645 834.415 113.726 834.409 112.599L834.384 107.154C834.384 107.133 834.378 107.114 834.378 107.094C834.378 107.073 834.383 107.054 834.383 107.034C834.364 102.905 831.055 99.5605 827.006 99.5795Z" fill="#A86FF4" fill-opacity="0.9"/>
<path d="M867.672 98.1113C865.833 98.12 864.113 98.7502 862.766 99.862C861.443 98.7955 859.726 98.1487 857.849 98.1575C856.783 98.1625 855.76 98.3838 854.823 98.7762C854.462 98.4607 853.992 98.2641 853.475 98.2666C852.347 98.2719 851.437 99.191 851.443 100.318L851.497 111.78C851.502 112.907 852.42 113.817 853.548 113.812C854.677 113.807 855.586 112.888 855.581 111.76L855.54 103.069C856.168 102.553 856.994 102.247 857.868 102.243C859.729 102.234 861.246 103.52 861.294 105.121C861.295 105.143 861.288 105.163 861.288 105.185L861.319 111.735C861.324 112.862 862.242 113.772 863.37 113.767C864.499 113.762 865.408 112.843 865.403 111.716L865.373 105.305C865.375 105.259 865.386 105.214 865.386 105.166C865.383 104.511 865.276 103.881 865.095 103.28C865.74 102.61 866.683 102.202 867.69 102.197C869.552 102.188 871.071 103.476 871.117 105.078C871.117 105.098 871.11 105.117 871.11 105.139L871.141 111.689C871.146 112.816 872.064 113.726 873.193 113.721C874.321 113.716 875.23 112.797 875.225 111.669L875.195 105.252C875.197 105.207 875.208 105.165 875.208 105.12C875.192 101.234 871.811 98.0919 867.672 98.1113Z" fill="#A86FF4" fill-opacity="0.9"/>
<path d="M845.544 94.1489L844.036 94.156L844.02 90.7335C844.015 89.6063 843.097 88.6957 841.968 88.701C840.84 88.7063 839.931 89.6255 839.936 90.7527L839.952 94.1751L838.444 94.1822C837.315 94.1875 836.406 95.1067 836.411 96.2339C836.416 97.3611 837.334 98.2716 838.463 98.2663L839.971 98.2592L840.037 112.314C840.043 113.441 840.96 114.352 842.089 114.346C843.217 114.341 844.127 113.422 844.121 112.295L844.055 98.24L845.564 98.2329C846.692 98.2276 847.601 97.3085 847.596 96.1813C847.591 95.0541 846.673 94.1436 845.544 94.1489Z" fill="#A86FF4" fill-opacity="0.9"/>
</g>
<defs>
<filter id="filter0_i" x="0" y="0" width="1023.41" height="134.376" filterUnits="userSpaceOnUse" color-interpolation-filters="sRGB">
<feFlood flood-opacity="0" result="BackgroundImageFix"/>
<feBlend mode="normal" in="SourceGraphic" in2="BackgroundImageFix" result="shape"/>
<feColorMatrix in="SourceAlpha" type="matrix" values="0 0 0 0 0 0 0 0 0 0 0 0 0 0 0 0 0 0 127 0" result="hardAlpha"/>
<feOffset dx="2" dy="4"/>
<feGaussianBlur stdDeviation="2"/>
<feComposite in2="hardAlpha" operator="arithmetic" k2="-1" k3="1"/>
<feColorMatrix type="matrix" values="0 0 0 0 0 0 0 0 0 0 0 0 0 0 0 0 0 0 0.25 0"/>
<feBlend mode="normal" in2="shape" result="effect1_innerShadow"/>
</filter>
</defs>
</svg>
